<?xml version="1.0" encoding="utf-8"?>
<svg xmlns="http://www.w3.org/2000/svg" height="512pt" version="1.1" viewBox="0 0 512 512" width="512pt">
<path d="M 0.00 0.00 L 512.00 0.00 L 512.00 512.00 L 0.00 512.00 L 0.00 0.00 Z" fill="transparent" opacity="1.00" stroke="transparent" stroke-width="0.25"/>
<path d="M 246.66 63.19 C 245.84 60.36 248.50 58.05 250.95 57.32 C 256.25 55.82 262.22 56.20 267.10 58.89 C 267.88 60.31 268.54 61.81 268.40 63.47 C 266.05 66.64 262.02 67.41 258.31 67.47 C 258.36 86.57 258.41 105.66 258.29 124.76 C 260.75 124.89 263.27 124.82 265.67 125.50 C 266.80 126.68 267.54 128.20 268.72 129.36 C 300.81 129.11 332.92 129.35 365.02 129.26 C 373.34 129.06 381.71 129.77 389.98 128.71 C 421.64 128.75 453.31 128.81 484.97 128.76 C 486.25 128.75 487.52 128.90 488.79 129.19 C 488.66 129.73 488.41 130.81 488.28 131.35 C 481.93 131.29 475.58 131.32 469.24 131.27 C 469.14 189.18 469.25 247.10 469.19 305.01 C 469.32 326.83 468.70 348.64 468.38 370.46 C 469.50 370.46 470.64 370.47 471.78 370.48 C 472.67 344.32 472.52 318.12 472.83 291.94 C 473.32 273.44 473.43 254.92 473.58 236.41 C 474.11 236.38 475.17 236.30 475.70 236.26 C 475.23 276.49 474.53 316.71 474.23 356.94 C 474.19 361.39 473.77 365.83 473.65 370.27 C 475.56 371.03 477.06 369.23 478.26 368.05 C 478.77 354.71 478.44 341.32 479.21 327.98 C 479.34 303.74 480.17 279.52 480.48 255.28 C 481.01 255.30 482.08 255.33 482.62 255.34 C 482.34 279.56 481.24 303.75 481.20 327.98 C 480.66 340.94 480.54 353.92 480.33 366.89 C 480.25 369.45 478.16 371.20 476.18 372.47 C 469.56 372.47 462.95 372.45 456.34 372.48 C 456.38 390.01 456.34 407.53 456.33 425.05 C 456.53 427.70 454.91 429.91 453.49 431.97 C 469.57 439.05 485.87 445.66 502.14 452.30 C 502.28 452.87 502.55 454.03 502.68 454.61 C 500.55 454.54 498.43 454.50 496.31 454.46 C 495.76 453.58 495.33 452.66 494.70 451.85 C 480.08 445.58 465.38 439.47 450.71 433.31 C 450.88 432.70 451.22 431.47 451.39 430.86 C 452.71 429.11 454.63 427.44 454.37 425.03 C 454.38 407.98 454.49 390.92 454.36 373.86 C 451.83 372.20 449.04 370.75 445.96 370.72 C 426.64 370.15 407.31 370.22 387.99 370.17 C 379.00 369.60 369.99 369.89 360.98 369.77 C 358.14 369.68 355.32 370.11 352.54 370.62 C 351.53 371.88 350.54 373.15 349.55 374.43 L 347.87 373.65 C 348.87 372.15 349.98 370.73 351.06 369.29 C 350.26 369.36 348.68 369.49 347.88 369.55 C 347.95 369.09 348.07 368.17 348.14 367.71 C 354.81 367.23 361.56 366.01 368.23 367.33 C 372.94 359.30 378.47 351.63 385.58 345.55 C 388.25 343.25 391.85 342.83 395.16 342.09 C 373.92 341.28 352.61 341.59 331.34 341.58 C 336.18 347.37 333.99 355.32 334.60 362.20 C 333.67 357.38 333.98 352.47 333.52 347.62 C 333.27 347.32 332.78 346.72 332.53 346.42 C 331.23 344.38 329.87 341.51 327.04 341.60 C 311.01 341.54 294.98 341.56 278.95 341.54 C 272.07 341.82 264.93 341.82 258.42 344.30 C 258.38 344.98 258.31 346.34 258.27 347.03 C 259.73 345.78 261.42 344.69 263.36 345.66 C 263.10 348.43 262.47 351.15 261.56 353.78 C 262.66 352.59 263.74 351.39 264.79 350.16 C 265.93 350.30 267.07 350.46 268.21 350.63 C 266.90 353.76 262.88 354.49 261.94 357.92 C 264.43 355.65 266.65 352.17 270.56 353.53 C 270.05 355.75 268.87 357.68 267.42 359.40 C 268.79 360.05 270.03 360.91 271.05 362.05 C 269.38 363.52 267.45 364.62 265.35 365.33 C 266.59 366.71 267.70 368.23 268.22 370.05 C 267.67 369.99 266.58 369.86 266.03 369.79 C 265.79 369.26 265.30 368.20 265.06 367.67 C 260.67 367.63 256.27 367.54 251.88 367.75 C 249.00 373.62 252.29 379.93 253.06 385.91 C 252.55 385.99 251.53 386.15 251.02 386.23 C 250.93 384.38 249.44 383.93 247.93 383.67 C 245.02 380.34 240.26 382.03 236.65 380.27 C 241.13 380.50 245.54 381.39 249.99 381.97 C 249.56 378.37 248.53 374.82 248.70 371.18 C 249.09 368.98 250.33 367.05 251.20 365.03 C 249.07 363.84 246.78 362.95 244.43 362.30 C 244.40 361.79 244.33 360.79 244.29 360.29 C 245.85 358.91 247.77 358.20 249.84 358.08 C 247.44 355.70 245.10 352.95 245.27 349.35 C 246.68 349.51 248.09 349.68 249.51 349.88 C 249.21 350.49 248.61 351.70 248.31 352.31 C 250.47 354.27 252.72 356.13 255.06 357.88 C 254.06 355.13 252.20 352.72 249.38 351.71 C 249.56 349.95 249.73 348.18 249.88 346.43 C 251.97 346.25 253.51 347.63 254.98 348.92 C 254.05 349.57 253.14 350.24 252.22 350.90 C 252.91 351.46 253.61 352.03 254.32 352.61 C 255.05 351.68 255.75 350.73 256.49 349.80 C 256.48 347.72 256.48 345.65 256.45 343.58 C 248.76 341.93 240.85 341.43 233.00 341.54 C 220.35 341.56 207.71 341.55 195.06 341.57 C 191.98 341.58 188.87 341.39 185.83 342.03 C 184.92 341.73 184.02 341.42 183.11 341.11 C 182.95 341.63 182.64 342.66 182.48 343.17 L 182.15 343.68 C 182.34 343.14 182.72 342.05 182.92 341.51 C 165.59 341.57 148.26 341.53 130.94 341.76 C 129.22 341.79 127.52 342.07 125.84 342.36 C 129.60 342.83 133.67 342.96 136.92 345.16 C 143.64 350.25 149.12 356.76 154.01 363.59 C 153.74 364.04 153.19 364.93 152.92 365.38 C 148.02 358.64 142.90 351.88 136.11 346.92 C 132.62 344.22 127.94 344.94 123.87 343.97 C 119.13 343.22 114.65 341.34 109.94 340.49 C 106.74 339.67 104.87 343.29 105.67 346.00 C 106.94 353.64 110.98 360.51 115.10 366.95 C 115.41 368.03 115.70 369.12 115.98 370.22 C 101.96 370.29 87.93 370.43 73.91 370.71 C 71.13 370.68 68.74 372.23 66.45 373.62 C 66.35 380.27 66.08 386.96 66.48 393.60 C 69.15 400.76 74.93 407.03 74.78 415.05 C 75.18 420.41 73.77 425.65 71.93 430.63 C 82.61 431.17 93.32 430.45 104.00 431.12 C 111.68 431.17 119.35 430.72 127.02 431.14 C 140.70 430.46 154.39 431.19 168.08 431.17 C 167.22 431.86 166.38 432.56 165.54 433.28 C 165.25 433.30 164.66 433.36 164.37 433.38 C 164.32 438.18 164.55 442.98 164.16 447.76 C 161.85 447.76 159.55 447.78 157.24 447.78 C 157.17 443.01 157.13 438.23 157.32 433.46 C 138.72 432.80 120.08 433.50 101.47 433.09 C 101.40 435.55 101.35 438.00 101.34 440.46 C 99.36 440.84 97.34 440.86 95.34 440.72 C 94.71 438.22 96.60 433.67 93.31 432.88 C 93.20 437.71 93.19 442.53 93.31 447.36 C 90.97 447.89 88.56 447.86 86.17 447.79 C 86.12 442.95 86.29 438.11 86.07 433.27 C 81.08 433.25 76.09 433.16 71.10 433.38 C 68.56 438.62 67.60 444.72 63.98 449.35 C 61.89 449.71 59.82 450.16 57.78 450.74 L 57.95 450.49 C 58.27 449.94 58.91 448.84 59.23 448.29 C 61.43 447.87 64.10 447.33 64.51 444.69 C 67.72 434.97 73.35 425.59 72.80 415.04 C 72.64 407.46 67.56 401.39 64.59 394.76 C 62.43 393.06 59.31 394.09 56.77 393.78 L 56.50 392.77 C 59.12 392.76 61.74 392.72 64.35 392.58 C 64.32 382.67 64.48 372.76 64.18 362.86 C 61.72 365.93 60.46 369.68 59.52 373.44 C 59.13 373.02 58.34 372.17 57.95 371.75 C 59.18 367.24 61.28 362.90 64.56 359.53 C 69.65 354.14 74.97 348.31 76.94 340.99 C 67.20 344.07 60.73 353.21 58.33 362.80 L 56.92 361.72 C 57.30 359.38 58.27 357.21 59.18 355.04 C 59.88 352.28 59.81 349.39 60.48 346.63 C 60.65 348.29 60.81 349.96 60.95 351.63 C 61.99 350.35 62.99 349.05 64.00 347.76 C 65.28 345.97 67.57 344.48 67.34 342.02 C 67.49 338.62 67.57 335.22 67.72 331.83 C 66.16 333.35 64.74 335.05 63.69 336.97 C 61.48 340.10 60.61 343.92 58.35 347.00 L 58.27 347.32 C 57.73 349.27 57.28 351.25 56.93 353.24 C 56.09 352.96 55.24 352.68 54.39 352.42 C 54.21 350.52 53.96 348.64 53.72 346.75 C 54.00 343.67 54.53 340.62 55.09 337.59 C 55.56 338.74 56.00 339.91 56.43 341.08 C 55.94 344.36 55.63 347.65 55.51 350.96 C 56.97 344.96 59.29 339.06 63.16 334.19 C 67.88 328.21 71.69 321.55 73.98 314.26 C 73.61 314.26 72.85 314.26 72.47 314.26 C 70.24 312.37 70.50 309.21 70.02 306.58 C 74.44 248.17 80.12 189.82 81.67 131.24 C 78.86 131.23 76.05 131.23 73.24 131.24 C 72.80 131.24 71.92 131.24 71.47 131.24 C 69.09 131.23 66.71 131.23 64.33 131.24 C 64.44 162.12 63.44 192.98 63.17 223.85 L 61.34 223.84 C 62.08 192.97 62.59 162.10 62.72 131.21 C 60.63 131.24 58.54 131.30 56.45 131.42 C 56.75 157.94 56.41 184.46 56.26 210.97 C 55.31 236.30 55.66 261.66 55.48 287.00 C 55.36 290.46 55.83 293.99 55.03 297.40 C 54.52 294.29 54.41 291.14 54.48 287.99 C 54.51 262.59 54.47 237.19 54.49 211.79 C 53.13 211.05 51.80 210.24 50.63 209.22 C 51.86 209.75 53.09 210.27 54.31 210.80 C 54.36 184.31 54.61 157.82 54.63 131.33 C 47.08 131.19 39.53 131.46 31.98 131.20 C 31.39 127.92 35.05 128.87 37.04 128.78 C 66.71 128.75 96.38 128.77 126.04 128.73 C 129.05 128.46 132.03 128.91 135.01 129.24 C 170.64 129.29 206.28 129.28 241.92 129.24 C 243.56 129.16 245.28 129.45 246.87 128.92 C 247.83 127.86 248.41 126.51 249.43 125.51 C 251.54 124.45 253.96 125.32 256.21 124.95 C 256.37 105.85 256.13 86.75 256.33 67.66 C 252.88 67.05 248.36 66.84 246.66 63.19 Z" fill="#451722" opacity="1.00" stroke="#451722" stroke-width="0.25"/>
<path d="M 248.23 62.03 C 252.57 57.18 260.70 57.95 265.91 60.92 C 266.52 64.40 262.45 64.67 260.05 65.14 C 256.00 65.64 251.00 65.48 248.23 62.03 Z" fill="#fffcfd" opacity="1.00" stroke="#fffcfd" stroke-width="0.25"/>
<path d="M 248.25 130.15 C 249.23 128.92 250.09 126.97 251.99 127.19 C 255.67 127.12 259.35 127.16 263.03 127.22 C 264.68 126.97 265.44 128.64 266.32 129.70 C 273.72 140.00 278.90 152.16 279.79 164.90 C 272.81 162.39 265.33 162.37 258.02 161.85 C 250.28 162.10 242.49 162.51 234.97 164.52 C 235.61 152.01 240.94 140.16 248.25 130.15 Z" fill="#fefefe" opacity="1.00" stroke="#fefefe" stroke-width="0.25"/>
<path d="M 56.45 131.42 C 58.54 131.30 60.63 131.24 62.72 131.21 C 62.59 162.10 62.08 192.97 61.34 223.84 C 60.71 241.24 60.69 258.64 59.97 276.04 C 59.51 289.81 59.51 303.62 58.32 317.36 C 57.75 311.66 56.33 306.06 53.98 300.84 C 54.04 300.43 54.15 299.61 54.21 299.20 C 54.42 298.75 54.83 297.85 55.03 297.40 C 55.83 293.99 55.36 290.46 55.48 287.00 C 55.66 261.66 55.31 236.30 56.26 210.97 C 56.41 184.46 56.75 157.94 56.45 131.42 Z" fill="#f2f2fd" opacity="1.00" stroke="#f2f2fd" stroke-width="0.25"/>
<path d="M 64.33 131.24 C 66.71 131.23 69.09 131.23 71.47 131.24 C 71.15 140.91 70.72 150.58 70.66 160.25 C 69.20 201.56 67.20 242.84 65.15 284.12 C 64.58 291.73 64.50 299.37 63.85 306.98 C 63.31 312.76 64.76 319.53 60.11 324.01 C 61.80 290.65 62.21 257.24 63.17 223.85 C 63.44 192.98 64.44 162.12 64.33 131.24 Z" fill="#f2f3fd" opacity="1.00" stroke="#f2f3fd" stroke-width="0.25"/>
<path d="M 71.47 131.24 C 71.92 131.24 72.80 131.24 73.24 131.24 C 73.13 138.21 72.99 145.18 72.61 152.15 C 72.33 151.37 71.78 149.80 71.51 149.02 C 71.04 152.75 70.85 156.50 70.66 160.25 C 70.72 150.58 71.15 140.91 71.47 131.24 Z" fill="#5d4955" opacity="1.00" stroke="#5d4955" stroke-width="0.25"/>
<path d="M 73.24 131.24 C 76.05 131.23 78.86 131.23 81.67 131.24 C 80.12 189.82 74.44 248.17 70.02 306.58 C 69.69 308.93 69.46 311.30 69.38 313.68 C 68.08 314.91 66.74 316.10 65.39 317.28 C 65.11 307.60 66.65 297.98 66.62 288.30 C 69.04 242.94 71.31 197.56 72.61 152.15 C 72.99 145.18 73.13 138.21 73.24 131.24 Z" fill="#f2f2fc" opacity="1.00" stroke="#f2f2fc" stroke-width="0.25"/>
<path d="M 91.48 131.41 C 93.49 131.13 95.53 131.13 97.56 131.19 C 97.05 152.75 95.87 174.29 94.39 195.80 C 90.97 233.66 88.74 271.93 79.35 308.92 C 79.14 309.99 78.24 312.83 76.74 311.56 L 76.24 310.83 C 75.07 311.02 73.95 311.44 72.89 311.96 L 71.46 312.63 C 73.06 294.43 74.55 276.22 76.00 258.01 C 79.21 215.81 82.96 173.62 83.68 131.28 C 85.91 131.17 88.15 131.17 90.39 131.25 C 89.46 146.07 89.54 160.93 89.28 175.77 L 89.67 175.70 C 89.52 171.33 89.79 166.99 90.43 162.67 C 90.44 152.23 91.92 141.85 91.48 131.41 Z" fill="#fffefd" opacity="1.00" stroke="#fffefd" stroke-width="0.25"/>
<path d="M 99.26 131.24 C 100.95 131.21 103.05 130.05 104.29 131.74 C 103.49 141.41 103.22 151.14 103.35 160.84 C 103.52 160.52 103.85 159.87 104.02 159.55 C 104.34 150.09 105.55 140.68 105.52 131.21 C 108.81 131.16 112.09 131.15 115.38 131.27 C 114.84 136.72 114.64 142.20 114.55 147.68 C 112.10 184.81 108.39 221.94 100.95 258.44 L 99.26 259.26 C 100.85 250.20 102.47 241.09 102.54 231.87 C 100.37 247.68 96.92 263.37 91.58 278.44 C 90.43 281.71 89.84 285.15 88.53 288.38 C 94.40 279.85 96.67 269.40 99.16 259.49 L 100.69 258.77 C 100.61 260.18 100.53 261.58 100.45 262.99 C 104.45 250.96 106.73 238.45 108.59 225.93 C 112.57 197.03 115.51 167.98 116.56 138.83 C 116.66 136.30 116.65 133.76 116.57 131.23 C 121.23 131.12 125.89 131.15 130.55 131.26 C 130.90 163.34 127.10 195.30 121.86 226.90 C 118.47 246.56 112.36 265.76 103.58 283.67 C 99.25 292.29 93.16 299.81 87.53 307.60 C 83.88 312.54 79.78 317.28 77.34 322.99 C 75.20 328.06 78.24 333.24 78.25 338.36 L 76.70 338.88 C 75.67 336.86 76.53 334.24 75.89 332.01 C 75.57 326.41 74.62 320.61 75.88 315.09 C 76.21 314.55 76.85 313.47 77.18 312.94 C 77.76 312.88 78.93 312.78 79.51 312.73 C 79.88 309.78 81.33 307.14 82.15 304.32 C 85.41 293.76 86.83 282.76 88.48 271.88 C 91.98 247.41 94.10 222.78 95.93 198.15 C 97.51 175.87 98.81 153.57 99.26 131.24 Z" fill="#fffffd" opacity="1.00" stroke="#fffffd" stroke-width="0.25"/>
<path d="M 132.50 131.42 C 166.69 131.42 200.87 131.46 235.06 131.41 C 238.32 131.42 241.59 131.28 244.84 131.58 C 237.60 141.96 232.92 154.34 232.68 167.07 C 232.58 169.46 234.82 170.86 236.03 172.66 C 215.01 172.81 193.98 172.48 172.97 172.16 C 165.01 171.52 157.01 171.65 149.04 171.36 C 143.12 171.32 137.25 170.47 131.34 170.53 C 132.20 157.52 133.01 144.48 132.50 131.42 Z" fill="#ffffff" opacity="1.00" stroke="#ffffff" stroke-width="0.25"/>
<path d="M 270.11 131.56 C 308.68 131.22 347.26 131.60 385.84 131.38 C 386.48 135.19 385.45 139.11 385.82 142.98 C 386.45 152.12 386.12 161.34 387.50 170.42 C 375.35 171.17 363.18 171.58 350.99 171.74 C 326.74 172.80 302.44 172.56 278.16 172.77 C 279.49 171.31 280.71 169.74 281.74 168.06 C 282.01 155.00 277.11 142.39 270.11 131.56 Z" fill="#ffffff" opacity="1.00" stroke="#ffffff" stroke-width="0.25"/>
<path d="M 388.26 131.19 C 393.38 131.15 398.50 131.21 403.62 131.20 C 404.02 156.70 405.74 182.17 407.87 207.58 C 408.49 207.01 409.11 206.44 409.73 205.87 C 407.31 181.05 405.62 156.15 405.33 131.20 C 408.11 131.15 410.90 131.16 413.69 131.19 C 413.65 135.59 414.02 139.97 414.23 144.36 C 414.76 164.26 416.35 184.13 417.87 203.98 C 418.85 208.59 418.55 213.33 419.45 217.95 C 418.03 189.05 416.39 160.14 415.36 131.21 C 416.88 131.27 418.40 131.33 419.92 131.41 C 419.73 139.27 420.10 147.12 420.25 154.98 C 420.95 190.70 422.01 226.46 425.87 262.01 C 428.09 278.93 429.69 296.49 437.61 311.92 C 433.86 298.48 430.53 284.88 428.88 271.00 C 424.15 232.54 422.70 193.77 422.13 155.05 C 421.95 147.09 421.78 139.14 421.71 131.18 C 424.34 131.21 426.97 131.20 429.61 131.23 C 429.95 157.96 432.00 184.63 433.95 211.28 C 436.45 244.95 439.34 278.59 442.37 312.22 C 442.24 316.14 443.64 320.17 442.93 324.01 C 440.86 319.05 437.30 314.99 434.10 310.75 C 427.63 302.47 420.87 294.31 415.79 285.07 C 409.05 271.62 403.72 257.47 400.02 242.89 C 395.40 223.58 392.84 203.83 390.65 184.12 C 388.81 166.55 387.73 148.87 388.26 131.19 Z" fill="#fffffd" opacity="1.00" stroke="#fffffd" stroke-width="0.25"/>
<path d="M 414.68 131.90 C 416.06 129.29 419.46 131.03 421.71 131.18 C 421.78 139.14 421.95 147.09 422.13 155.05 L 420.25 154.98 C 420.10 147.12 419.73 139.27 419.92 131.41 C 418.40 131.33 416.88 131.27 415.36 131.21 C 416.39 160.14 418.03 189.05 419.45 217.95 C 418.55 213.33 418.85 208.59 417.87 203.98 C 416.35 184.13 414.76 164.26 414.23 144.36 C 415.42 140.29 414.12 136.04 414.68 131.90 Z" fill="#60464c" opacity="1.00" stroke="#60464c" stroke-width="0.25"/>
<path d="M 431.66 131.31 C 434.27 131.18 436.89 131.19 439.51 131.28 C 439.32 155.28 441.11 179.24 442.01 203.21 C 444.14 247.54 447.62 291.80 450.37 336.10 C 450.52 337.94 450.52 339.78 450.50 341.64 L 449.15 341.31 C 448.43 341.12 446.98 340.74 446.25 340.55 C 446.25 337.63 446.18 334.72 445.82 331.83 C 445.29 323.70 444.78 315.57 443.97 307.47 C 441.46 274.21 438.27 241.01 435.77 207.76 C 433.95 182.30 432.19 156.84 431.66 131.31 Z" fill="#f2f2fc" opacity="1.00" stroke="#f2f2fc" stroke-width="0.25"/>
<path d="M 440.62 131.48 C 443.57 131.09 446.55 131.14 449.52 131.38 C 448.53 194.64 452.28 257.84 454.68 321.02 C 454.70 328.61 455.64 336.19 455.15 343.78 C 450.46 343.04 452.98 337.11 452.07 333.89 C 450.02 298.60 446.95 263.38 445.24 228.07 C 444.44 218.64 444.42 209.16 443.57 199.74 C 443.13 189.15 442.33 178.57 442.20 167.97 C 441.21 155.83 441.56 143.63 440.62 131.48 Z" fill="#f2f2fc" opacity="1.00" stroke="#f2f2fc" stroke-width="0.25"/>
<path d="M 449.52 131.38 L 451.19 131.20 C 450.87 175.15 451.92 219.09 454.09 262.98 C 454.77 286.58 456.30 310.16 456.74 333.76 C 456.01 337.43 456.65 341.17 456.12 344.85 L 455.05 345.35 C 455.08 344.96 455.13 344.17 455.15 343.78 C 455.64 336.19 454.70 328.61 454.68 321.02 C 452.28 257.84 448.53 194.64 449.52 131.38 Z" fill="#47313f" opacity="1.00" stroke="#47313f" stroke-width="0.25"/>
<path d="M 451.19 131.20 C 453.96 131.26 456.73 131.25 459.51 131.13 C 459.38 184.78 460.19 238.40 460.82 292.04 C 461.28 314.71 461.50 337.40 461.26 360.08 C 461.21 363.17 461.23 366.26 461.24 369.36 C 460.62 371.35 458.09 370.11 456.58 370.43 C 456.60 358.20 457.23 345.97 456.74 333.76 C 456.30 310.16 454.77 286.58 454.09 262.98 C 451.92 219.09 450.87 175.15 451.19 131.20 Z" fill="#f1f2fd" opacity="1.00" stroke="#f1f2fd" stroke-width="0.25"/>
<path d="M 459.51 131.13 C 459.93 131.18 460.77 131.28 461.20 131.33 C 461.40 156.76 461.28 182.20 461.56 207.63 C 461.74 236.73 462.39 265.82 462.61 294.92 C 462.67 316.64 463.74 338.36 462.77 360.07 C 462.39 360.07 461.64 360.08 461.26 360.08 C 461.50 337.40 461.28 314.71 460.82 292.04 C 460.19 238.40 459.38 184.78 459.51 131.13 Z" fill="#472e3c" opacity="1.00" stroke="#472e3c" stroke-width="0.25"/>
<path d="M 461.20 131.33 C 463.23 131.20 465.30 131.15 467.32 131.57 C 466.99 184.05 467.31 236.54 467.18 289.03 C 467.28 316.18 466.97 343.33 466.39 370.48 C 465.44 370.46 463.53 370.43 462.57 370.41 C 462.66 366.96 462.65 363.51 462.77 360.07 C 463.74 338.36 462.67 316.64 462.61 294.92 C 462.39 265.82 461.74 236.73 461.56 207.63 C 461.28 182.20 461.40 156.76 461.20 131.33 Z" fill="#f6f4fc" opacity="1.00" stroke="#f6f4fc" stroke-width="0.25"/>
<path d="M 115.85 139.39 L 116.56 138.83 C 115.51 167.98 112.57 197.03 108.59 225.93 C 106.73 238.45 104.45 250.96 100.45 262.99 C 100.53 261.58 100.61 260.18 100.69 258.77 L 99.16 259.49 C 96.67 269.40 94.40 279.85 88.53 288.38 C 89.84 285.15 90.43 281.71 91.58 278.44 C 96.92 263.37 100.37 247.68 102.54 231.87 C 102.47 241.09 100.85 250.20 99.26 259.26 L 100.95 258.44 C 108.39 221.94 112.10 184.81 114.55 147.68 C 115.38 148.90 115.45 150.37 115.62 151.79 C 115.71 147.66 115.32 143.49 115.85 139.39 Z" fill="#4a2b33" opacity="1.00" stroke="#4a2b33" stroke-width="0.25"/>
<path d="M 70.66 160.25 C 70.85 156.50 71.04 152.75 71.51 149.02 C 71.78 149.80 72.33 151.37 72.61 152.15 C 71.31 197.56 69.04 242.94 66.62 288.30 C 66.15 286.90 65.61 285.52 65.15 284.12 C 67.20 242.84 69.20 201.56 70.66 160.25 Z" fill="#472e3c" opacity="1.00" stroke="#472e3c" stroke-width="0.25"/>
<path d="M 420.25 154.98 L 422.13 155.05 C 422.70 193.77 424.15 232.54 428.88 271.00 C 430.53 284.88 433.86 298.48 437.61 311.92 C 429.69 296.49 428.09 278.93 425.87 262.01 C 422.01 226.46 420.95 190.70 420.25 154.98 Z" fill="#4f343b" opacity="1.00" stroke="#4f343b" stroke-width="0.25"/>
<path d="M 235.34 166.67 C 245.34 163.89 255.81 163.87 266.10 164.45 C 270.48 164.85 274.93 165.39 279.08 166.93 C 279.23 167.27 279.52 167.93 279.67 168.27 C 274.36 174.61 266.51 179.18 258.05 178.87 C 250.99 179.41 244.10 176.59 238.63 172.28 C 237.15 170.69 235.08 169.09 235.34 166.67 Z" fill="#fffffd" opacity="1.00" stroke="#fffffd" stroke-width="0.25"/>
<path d="M 130.93 173.97 C 131.17 173.68 131.66 173.08 131.90 172.78 C 143.56 173.82 155.30 173.32 166.98 174.20 C 173.53 174.27 180.09 174.65 186.64 174.42 C 186.74 178.88 186.69 183.34 186.67 187.81 C 167.63 187.63 148.57 187.65 129.57 186.43 C 130.60 182.35 130.39 178.12 130.93 173.97 Z" fill="#fffffd" opacity="1.00" stroke="#fffffd" stroke-width="0.25"/>
<path d="M 348.94 174.19 C 361.34 173.32 373.79 173.73 386.18 172.86 C 386.54 172.94 387.26 173.09 387.62 173.17 C 387.64 177.67 388.51 182.11 388.71 186.61 C 367.86 187.38 347.00 187.75 326.14 187.85 C 326.34 183.37 325.72 178.83 326.56 174.40 C 334.02 174.75 341.48 174.23 348.94 174.19 Z" fill="#fffffd" opacity="1.00" stroke="#fffffd" stroke-width="0.25"/>
<path d="M 186.64 174.42 C 187.30 174.75 187.95 175.08 188.61 175.42 C 189.47 174.49 190.41 173.54 191.77 174.20 C 192.70 179.11 190.83 184.39 193.25 189.02 C 191.36 192.76 192.18 196.99 192.10 200.99 C 192.00 240.99 192.15 280.99 192.11 320.99 C 191.96 326.60 192.23 332.22 191.80 337.82 C 191.21 337.29 190.61 336.77 190.02 336.26 C 190.00 337.67 190.71 338.85 191.70 339.81 C 173.17 339.99 154.63 340.19 136.10 340.03 L 136.26 339.57 C 153.01 339.60 169.77 339.31 186.53 339.56 C 186.77 289.80 186.54 240.03 186.68 190.27 C 186.68 189.66 186.67 188.43 186.67 187.81 C 186.69 183.34 186.74 178.88 186.64 174.42 Z" fill="#541120" opacity="1.00" stroke="#541120" stroke-width="0.25"/>
<path d="M 320.20 174.11 C 321.29 174.10 322.38 174.09 323.48 174.07 C 324.89 179.45 322.79 185.46 326.12 190.29 C 326.26 240.04 326.05 289.82 326.16 339.55 C 323.73 340.26 321.18 340.08 318.74 339.54 C 318.96 295.03 318.77 250.51 318.84 205.99 C 318.80 200.71 319.00 195.43 318.66 190.16 C 318.65 189.67 318.64 188.70 318.63 188.21 C 318.69 187.51 318.81 186.10 318.87 185.39 C 321.36 182.19 319.75 177.84 320.20 174.11 Z" fill="#531120" opacity="1.00" stroke="#531120" stroke-width="0.25"/>
<path d="M 193.55 175.53 C 194.76 174.34 196.48 174.74 198.01 174.72 C 202.64 174.89 207.27 174.67 211.90 174.98 C 220.96 175.53 230.07 174.87 239.12 175.46 C 249.33 182.35 263.64 183.21 273.98 176.14 C 275.36 174.96 277.24 175.31 278.90 175.22 C 292.11 175.32 305.31 174.89 318.52 174.56 C 319.10 178.14 318.80 181.78 318.87 185.39 C 318.81 186.10 318.69 187.51 318.63 188.21 C 283.07 188.18 247.51 188.35 211.95 188.19 C 205.83 188.12 199.67 188.40 193.59 187.49 C 193.77 183.51 193.86 179.51 193.55 175.53 Z" fill="#fffeff" opacity="1.00" stroke="#fffeff" stroke-width="0.25"/>
<path d="M 326.12 190.29 C 347.14 189.71 368.19 189.66 389.20 188.80 C 389.82 197.89 391.14 206.93 392.65 215.92 C 395.85 238.25 401.41 260.42 411.35 280.77 C 417.03 293.89 426.92 304.44 435.27 315.85 C 438.01 319.23 440.42 322.94 441.71 327.12 C 442.22 331.32 441.14 335.51 440.69 339.68 C 434.47 338.88 428.19 337.91 421.90 338.50 C 419.51 338.64 417.06 340.76 414.78 339.19 C 410.23 336.94 405.75 341.13 401.12 340.49 C 390.13 339.36 379.06 339.72 368.04 339.51 C 354.08 339.54 340.11 339.29 326.16 339.55 C 326.05 289.82 326.26 240.04 326.12 190.29 Z" fill="#ffffff" opacity="1.00" stroke="#ffffff" stroke-width="0.25"/>
<path d="M 129.47 189.18 C 148.54 189.31 167.61 189.95 186.68 190.27 C 186.54 240.03 186.77 289.80 186.53 339.56 C 169.77 339.31 153.01 339.60 136.26 339.57 C 136.55 324.16 136.48 308.72 136.39 293.30 C 142.51 292.27 148.75 293.20 154.91 292.72 C 156.42 292.47 157.33 291.07 158.47 290.20 C 159.39 286.89 159.42 283.41 159.01 280.03 C 158.75 277.52 156.61 275.23 154.01 275.25 C 147.11 275.20 140.21 275.30 133.31 275.30 C 133.40 280.38 133.17 285.56 134.50 290.52 C 132.19 290.66 129.45 289.92 127.66 291.85 C 123.00 295.75 118.33 299.64 113.42 303.24 C 110.83 304.89 109.50 308.04 109.53 311.04 C 109.46 320.17 109.44 329.29 109.49 338.42 C 107.73 338.53 106.14 339.22 104.76 340.30 C 97.13 336.67 88.50 338.86 80.47 339.47 C 80.34 334.58 78.46 329.79 79.31 324.88 C 79.91 320.99 82.62 317.97 84.74 314.82 C 89.83 308.13 94.91 301.44 99.71 294.54 C 108.27 281.19 114.05 266.24 118.49 251.07 C 124.27 230.88 126.80 209.96 129.47 189.18 Z" fill="#ffffff" opacity="1.00" stroke="#ffffff" stroke-width="0.25"/>
<path d="M 193.55 190.53 C 194.71 190.41 195.87 190.34 197.04 190.30 C 237.58 190.37 278.13 190.61 318.66 190.16 C 319.00 195.43 318.80 200.71 318.84 205.99 C 318.77 250.51 318.96 295.03 318.74 339.54 C 306.13 339.33 293.52 339.53 280.92 339.47 C 273.23 339.50 265.54 340.28 258.02 341.83 C 255.96 341.78 254.08 340.82 252.06 340.63 C 232.68 338.35 213.12 340.04 193.66 339.36 C 193.74 292.58 193.68 245.80 193.72 199.03 C 193.74 196.19 193.75 193.36 193.55 190.53 Z" fill="#ffffff" opacity="1.00" stroke="#ffffff" stroke-width="0.25"/>
<path d="M 94.39 195.80 C 94.94 196.56 95.45 197.34 95.93 198.15 C 94.10 222.78 91.98 247.41 88.48 271.88 C 86.83 282.76 85.41 293.76 82.15 304.32 C 81.33 307.14 79.88 309.78 79.51 312.73 C 78.93 312.78 77.76 312.88 77.18 312.94 C 76.85 313.47 76.21 314.55 75.88 315.09 C 75.84 313.85 75.79 312.63 75.73 311.41 C 74.78 311.59 73.83 311.77 72.89 311.96 C 73.95 311.44 75.07 311.02 76.24 310.83 L 76.74 311.56 C 78.24 312.83 79.14 309.99 79.35 308.92 C 88.74 271.93 90.97 233.66 94.39 195.80 Z" fill="#4f2f37" opacity="1.00" stroke="#4f2f37" stroke-width="0.25"/>
<path d="M 26.59 198.42 C 28.93 196.23 32.92 197.73 34.86 199.83 C 34.46 199.78 33.66 199.66 33.26 199.60 C 32.84 199.80 32.02 200.20 31.61 200.40 C 31.54 200.50 31.41 200.69 31.34 200.78 C 29.93 202.14 30.13 204.15 30.07 205.93 C 30.14 231.28 30.14 256.64 30.11 281.99 C 29.98 287.12 30.19 292.25 30.40 297.37 C 29.52 297.38 27.77 297.41 26.90 297.42 C 25.32 294.85 25.91 291.80 25.83 288.96 C 25.87 262.63 25.82 236.29 25.88 209.96 C 26.30 206.13 25.73 202.19 26.59 198.42 Z" fill="#490c1c" opacity="1.00" stroke="#490c1c" stroke-width="0.25"/>
<path d="M 33.26 199.60 C 33.66 199.66 34.46 199.78 34.86 199.83 C 40.24 202.73 45.62 205.74 50.63 209.22 C 51.80 210.24 53.13 211.05 54.49 211.79 C 54.47 237.19 54.51 262.59 54.48 287.99 C 54.41 291.14 54.52 294.29 55.03 297.40 C 54.83 297.85 54.42 298.75 54.21 299.20 C 52.52 299.91 50.74 299.06 49.02 298.95 C 41.69 297.97 34.04 299.36 26.90 297.42 C 27.77 297.41 29.52 297.38 30.40 297.37 C 30.19 292.25 29.98 287.12 30.11 281.99 C 30.14 256.64 30.14 231.28 30.07 205.93 C 30.13 204.15 29.93 202.14 31.34 200.78 C 31.65 232.34 31.25 263.91 31.55 295.46 C 37.37 295.68 43.20 295.50 49.01 296.07 C 50.29 296.28 52.64 295.79 52.39 294.06 C 52.62 270.03 52.45 245.99 52.57 221.96 C 52.58 219.27 52.74 216.56 52.33 213.90 C 51.27 211.52 48.39 210.97 46.43 209.55 C 41.60 206.30 36.06 204.20 31.61 200.40 C 32.02 200.20 32.84 199.80 33.26 199.60 Z" fill="#233071" opacity="1.00" stroke="#233071" stroke-width="0.25"/>
<path d="M 31.34 200.78 C 31.41 200.69 31.54 200.50 31.61 200.40 C 36.06 204.20 41.60 206.30 46.43 209.55 C 48.39 210.97 51.27 211.52 52.33 213.90 C 52.74 216.56 52.58 219.27 52.57 221.96 C 52.45 245.99 52.62 270.03 52.39 294.06 C 52.64 295.79 50.29 296.28 49.01 296.07 C 43.20 295.50 37.37 295.68 31.55 295.46 C 31.25 263.91 31.65 232.34 31.34 200.78 Z" fill="#056ffe" opacity="1.00" stroke="#056ffe" stroke-width="0.25"/>
<path d="M 443.57 199.74 C 444.42 209.16 444.44 218.64 445.24 228.07 C 446.95 263.38 450.02 298.60 452.07 333.89 C 451.50 334.63 450.93 335.36 450.37 336.10 C 447.62 291.80 444.14 247.54 442.01 203.21 C 442.46 202.02 442.98 200.86 443.57 199.74 Z" fill="#4d3542" opacity="1.00" stroke="#4d3542" stroke-width="0.25"/>
<path d="M 408.22 207.80 C 408.77 207.88 409.87 208.04 410.42 208.12 C 410.19 211.08 410.63 214.04 411.04 216.97 C 412.39 228.09 414.04 239.19 416.40 250.15 C 419.20 262.50 423.56 274.42 427.44 286.46 C 427.29 286.49 426.98 286.55 426.83 286.58 C 414.59 262.17 411.04 234.63 408.22 207.80 Z" fill="#482830" opacity="1.00" stroke="#482830" stroke-width="0.25"/>
<path d="M 435.77 207.76 C 438.27 241.01 441.46 274.21 443.97 307.47 C 443.48 309.06 442.95 310.64 442.37 312.22 C 439.34 278.59 436.45 244.95 433.95 211.28 C 434.55 210.11 435.16 208.93 435.77 207.76 Z" fill="#472631" opacity="1.00" stroke="#472631" stroke-width="0.25"/>
<path d="M 61.34 223.84 L 63.17 223.85 C 62.21 257.24 61.80 290.65 60.11 324.01 C 59.96 324.23 59.65 324.66 59.50 324.87 C 59.00 322.38 58.55 319.89 58.32 317.36 C 59.51 303.62 59.51 289.81 59.97 276.04 C 60.69 258.64 60.71 241.24 61.34 223.84 Z" fill="#56454f" opacity="1.00" stroke="#56454f" stroke-width="0.25"/>
<path d="M 135.56 277.59 C 141.68 277.34 147.83 277.36 153.95 277.45 C 157.52 278.07 156.71 282.30 156.78 284.93 C 157.00 287.13 156.72 290.27 153.97 290.63 C 148.08 290.78 142.17 290.57 136.28 290.67 C 136.49 286.29 135.73 281.96 135.56 277.59 Z" fill="#fffefd" opacity="1.00" stroke="#fffefd" stroke-width="0.25"/>
<path d="M 63.85 306.98 C 64.50 299.37 64.58 291.73 65.15 284.12 C 65.61 285.52 66.15 286.90 66.62 288.30 C 66.65 297.98 65.11 307.60 65.39 317.28 C 66.74 316.10 68.08 314.91 69.38 313.68 C 69.46 311.30 69.69 308.93 70.02 306.58 C 70.50 309.21 70.24 312.37 72.47 314.26 C 63.50 320.32 57.43 330.26 56.43 341.08 C 56.00 339.91 55.56 338.74 55.09 337.59 C 58.05 326.26 56.77 314.22 52.75 303.33 C 51.95 304.31 51.19 305.34 50.70 306.52 L 49.14 306.16 C 49.22 303.89 50.96 298.47 53.98 300.84 C 56.33 306.06 57.75 311.66 58.32 317.36 C 58.55 319.89 59.00 322.38 59.50 324.87 C 59.65 324.66 59.96 324.23 60.11 324.01 C 64.76 319.53 63.31 312.76 63.85 306.98 Z" fill="#513340" opacity="1.00" stroke="#513340" stroke-width="0.25"/>
<path d="M 129.41 293.61 C 130.94 293.09 133.25 291.85 134.33 293.73 C 134.32 308.97 134.10 324.23 134.34 339.47 C 129.95 340.01 125.50 339.59 121.12 340.35 C 117.77 341.05 114.59 339.55 111.53 338.42 C 111.76 329.61 111.54 320.80 111.64 311.99 C 111.59 309.30 112.59 306.43 114.97 304.98 C 120.02 301.49 124.40 297.14 129.41 293.61 Z" fill="#ffffff" opacity="1.00" stroke="#ffffff" stroke-width="0.25"/>
<path d="M 50.70 306.52 C 51.19 305.34 51.95 304.31 52.75 303.33 C 56.77 314.22 58.05 326.26 55.09 337.59 C 54.53 340.62 54.00 343.67 53.72 346.75 C 53.02 361.80 52.77 376.88 52.62 391.95 C 52.33 391.91 51.76 391.82 51.47 391.78 C 51.48 377.52 51.22 363.27 51.31 349.01 C 51.64 342.19 48.71 335.82 48.28 329.08 C 47.18 321.51 48.28 313.74 50.70 306.52 Z" fill="#fffdfd" opacity="1.00" stroke="#fffdfd" stroke-width="0.25"/>
<path d="M 48.70 306.23 L 49.14 306.16 L 50.70 306.52 C 48.28 313.74 47.18 321.51 48.28 329.08 C 48.71 335.82 51.64 342.19 51.31 349.01 C 51.22 363.27 51.48 377.52 51.47 391.78 C 51.76 391.82 52.33 391.91 52.62 391.95 C 52.77 376.88 53.02 361.80 53.72 346.75 C 53.96 348.64 54.21 350.52 54.39 352.42 C 55.24 352.68 56.09 352.96 56.93 353.24 C 56.57 356.05 56.35 358.92 56.92 361.72 L 58.33 362.80 C 56.75 367.70 56.22 372.85 56.36 377.98 C 56.86 375.89 57.36 373.81 57.95 371.75 C 58.34 372.17 59.13 373.02 59.52 373.44 C 57.96 379.78 57.19 386.28 56.50 392.77 L 56.77 393.78 C 53.04 393.80 49.20 394.25 45.62 392.96 C 46.20 392.88 47.37 392.73 47.95 392.65 C 47.35 384.16 46.59 375.61 44.35 367.37 C 42.67 361.26 37.02 357.62 33.66 352.54 C 30.19 348.13 27.89 342.94 26.56 337.51 C 29.31 336.99 31.60 338.88 33.89 340.07 C 39.73 343.72 44.79 349.24 46.60 356.01 C 46.03 346.14 37.98 339.11 35.10 330.03 C 33.68 326.72 33.42 323.11 32.69 319.63 C 34.33 318.99 35.67 320.41 36.94 321.20 C 40.70 324.23 44.22 327.70 46.62 331.94 C 45.29 323.35 45.75 314.47 48.70 306.23 Z" fill="#501825" opacity="1.00" stroke="#501825" stroke-width="0.25"/>
<path d="M 72.47 314.26 C 72.85 314.26 73.61 314.26 73.98 314.26 C 71.69 321.55 67.88 328.21 63.16 334.19 C 59.29 339.06 56.97 344.96 55.51 350.96 C 55.63 347.65 55.94 344.36 56.43 341.08 C 57.43 330.26 63.50 320.32 72.47 314.26 Z" fill="#fffcfd" opacity="1.00" stroke="#fffcfd" stroke-width="0.25"/>
<path d="M 69.35 341.84 C 70.23 334.89 68.68 326.11 74.38 321.06 C 74.52 327.08 73.90 333.31 75.79 339.12 C 73.67 340.09 71.65 341.33 69.35 341.84 Z" fill="#fffcfb" opacity="1.00" stroke="#fffcfb" stroke-width="0.25"/>
<path d="M 35.44 322.96 C 43.61 328.52 49.29 338.00 49.27 348.02 C 49.04 350.00 50.13 352.49 48.64 354.10 C 46.31 342.83 36.66 334.56 35.44 322.96 Z" fill="#fffdfd" opacity="1.00" stroke="#fffdfd" stroke-width="0.25"/>
<path d="M 63.69 336.97 C 64.74 335.05 66.16 333.35 67.72 331.83 C 67.57 335.22 67.49 338.62 67.34 342.02 C 67.57 344.48 65.28 345.97 64.00 347.76 C 63.57 344.18 63.41 340.57 63.69 336.97 Z" fill="#f7eff8" opacity="1.00" stroke="#f7eff8" stroke-width="0.25"/>
<path d="M 445.82 331.83 C 446.18 334.72 446.25 337.63 446.25 340.55 C 446.98 340.74 448.43 341.12 449.15 341.31 C 447.28 341.25 445.15 341.31 443.78 339.80 C 443.66 338.30 443.63 336.80 443.73 335.31 C 444.40 334.13 445.10 332.97 445.82 331.83 Z" fill="#623647" opacity="1.00" stroke="#623647" stroke-width="0.25"/>
<path d="M 442.39 339.68 C 442.83 337.77 443.28 335.86 443.78 333.97 L 443.73 335.31 C 443.63 336.80 443.66 338.30 443.78 339.80 C 443.44 339.77 442.74 339.71 442.39 339.68 Z" fill="#f4c7d0" opacity="1.00" stroke="#f4c7d0" stroke-width="0.25"/>
<path d="M 58.35 347.00 C 60.61 343.92 61.48 340.10 63.69 336.97 C 63.41 340.57 63.57 344.18 64.00 347.76 C 62.99 349.05 61.99 350.35 60.95 351.63 C 60.81 349.96 60.65 348.29 60.48 346.63 C 59.81 349.39 59.88 352.28 59.18 355.04 C 59.56 352.41 58.93 349.83 58.27 347.32 L 58.35 347.00 Z" fill="#82616a" opacity="1.00" stroke="#82616a" stroke-width="0.25"/>
<path d="M 29.40 340.33 C 36.87 342.88 42.36 349.64 45.15 356.84 C 47.84 363.70 49.29 371.07 49.24 378.44 C 49.13 378.46 48.91 378.51 48.80 378.53 C 48.29 370.28 45.28 361.64 39.01 355.96 C 34.75 351.50 31.49 346.12 29.40 340.33 Z" fill="#fefdfb" opacity="1.00" stroke="#fefdfb" stroke-width="0.25"/>
<path d="M 84.09 340.97 C 90.54 340.32 97.28 339.44 103.53 341.62 C 103.31 351.39 108.20 360.37 113.69 368.12 C 107.27 368.37 100.85 368.27 94.43 368.40 C 92.06 361.65 89.72 354.85 86.58 348.41 C 85.23 345.69 83.20 342.87 80.03 342.25 C 80.86 340.89 82.78 341.38 84.09 340.97 Z" fill="#fffefd" opacity="1.00" stroke="#fffefd" stroke-width="0.25"/>
<path d="M 417.57 341.74 C 424.73 338.76 432.67 340.78 440.07 341.63 C 438.82 343.21 436.64 343.80 435.73 345.69 C 431.46 352.72 429.05 360.66 426.26 368.34 C 419.95 368.18 413.63 368.35 407.32 368.13 C 412.50 360.24 417.82 351.51 417.57 341.74 Z" fill="#fffffd" opacity="1.00" stroke="#fffffd" stroke-width="0.25"/>
<path d="M 58.33 362.80 C 60.73 353.21 67.20 344.07 76.94 340.99 C 74.97 348.31 69.65 354.14 64.56 359.53 C 61.28 362.90 59.18 367.24 57.95 371.75 C 57.36 373.81 56.86 375.89 56.36 377.98 C 56.22 372.85 56.75 367.70 58.33 362.80 Z" fill="#fdfcfa" opacity="1.00" stroke="#fdfcfa" stroke-width="0.25"/>
<path d="M 105.67 346.00 C 104.87 343.29 106.74 339.67 109.94 340.49 C 114.65 341.34 119.13 343.22 123.87 343.97 C 127.94 344.94 132.62 344.22 136.11 346.92 C 142.90 351.88 148.02 358.64 152.92 365.38 C 153.22 366.11 153.52 366.85 153.83 367.59 C 144.53 367.89 135.22 367.62 125.93 368.12 C 124.02 368.42 122.79 366.64 121.58 365.50 C 116.61 360.08 112.25 354.13 108.24 347.98 C 110.04 356.02 116.26 361.93 121.32 368.07 C 119.83 368.16 118.33 368.26 116.84 368.36 C 116.40 368.01 115.53 367.30 115.10 366.95 C 110.98 360.51 106.94 353.64 105.67 346.00 Z" fill="#ffffff" opacity="1.00" stroke="#ffffff" stroke-width="0.25"/>
<path d="M 183.11 341.11 C 184.02 341.42 184.92 341.73 185.83 342.03 C 183.22 343.80 181.99 346.84 181.97 349.92 C 181.50 360.84 181.18 371.78 181.45 382.71 C 196.40 379.40 211.79 379.02 227.04 379.50 C 230.25 379.62 233.49 379.57 236.65 380.27 C 240.26 382.03 245.02 380.34 247.93 383.67 C 240.36 382.51 232.74 381.42 225.06 381.36 C 211.07 381.18 196.86 381.16 183.18 384.50 C 183.64 385.20 184.55 386.59 185.01 387.29 C 206.96 385.56 229.03 386.78 251.02 386.23 C 251.53 386.15 252.55 385.99 253.06 385.91 C 253.21 386.57 253.52 387.89 253.67 388.55 C 256.89 388.88 260.14 388.89 263.34 388.35 C 264.22 382.17 267.29 376.12 266.03 369.79 C 266.58 369.86 267.67 369.99 268.22 370.05 C 268.93 374.28 267.66 378.48 266.50 382.51 C 288.49 378.30 311.27 378.31 333.37 381.76 C 332.95 382.42 332.52 383.08 332.10 383.74 C 317.98 380.79 303.49 381.14 289.16 381.55 C 281.35 382.05 273.49 382.80 265.90 384.80 C 266.53 387.27 269.32 386.05 271.08 386.38 C 293.11 386.45 315.20 385.85 337.17 387.40 C 337.32 386.40 337.48 385.40 337.65 384.40 C 336.83 384.40 335.20 384.41 334.38 384.41 C 334.15 383.96 333.70 383.05 333.47 382.59 C 333.42 370.55 332.58 358.48 332.53 346.42 C 332.78 346.72 333.27 347.32 333.52 347.62 C 333.98 352.47 333.67 357.38 334.60 362.20 C 335.14 368.97 334.36 375.96 336.36 382.53 C 337.45 382.57 338.55 382.61 339.65 382.66 C 340.04 379.65 340.07 376.60 340.49 373.60 C 341.21 370.08 344.78 368.04 348.14 367.71 C 348.07 368.17 347.95 369.09 347.88 369.55 C 344.37 370.21 341.72 373.29 342.08 376.94 C 342.30 379.57 341.21 385.64 345.87 383.63 C 346.06 384.16 346.44 385.23 346.62 385.76 C 345.74 385.74 343.96 385.68 343.07 385.66 C 344.15 387.26 345.43 388.74 347.24 389.58 C 346.82 384.27 346.96 378.89 347.87 373.65 L 349.55 374.43 C 348.93 386.26 349.43 398.12 349.28 409.96 C 349.38 415.67 349.01 421.39 349.44 427.09 C 349.52 429.01 351.30 430.48 353.06 430.89 C 385.82 430.86 418.62 430.84 451.39 430.86 C 451.22 431.47 450.88 432.70 450.71 433.31 C 444.91 433.10 439.10 433.31 433.31 433.26 C 433.18 438.10 433.37 442.95 433.05 447.79 C 430.79 447.46 427.62 448.65 425.93 447.04 C 425.60 442.29 426.03 437.51 425.62 432.76 C 423.86 435.02 425.20 438.33 424.46 440.98 C 422.53 440.83 420.61 440.67 418.70 440.45 C 418.72 438.00 418.68 435.55 418.58 433.10 C 400.13 433.35 381.68 433.14 363.24 433.23 C 363.15 438.07 363.38 442.93 362.90 447.76 C 360.59 447.80 358.28 447.82 355.97 447.84 C 355.58 443.02 355.88 438.18 355.79 433.36 C 351.90 434.18 349.31 431.18 346.10 429.81 C 335.94 429.54 325.76 429.90 315.59 429.67 C 315.56 435.69 315.57 441.70 315.56 447.72 C 313.16 447.79 310.75 447.80 308.35 447.74 C 308.33 445.66 308.35 443.57 308.49 441.49 C 309.04 443.22 309.32 445.02 309.49 446.83 C 309.77 446.73 310.33 446.54 310.61 446.44 C 311.36 446.18 312.85 445.67 313.59 445.41 C 313.45 430.62 313.70 415.83 313.49 401.04 C 312.71 400.89 311.16 400.60 310.38 400.45 C 308.46 399.85 306.46 399.82 304.57 400.52 C 301.79 401.42 298.86 400.92 296.01 400.92 C 283.40 401.39 270.77 400.60 258.17 401.26 C 258.22 410.04 258.16 418.83 258.24 427.61 C 257.73 427.61 256.73 427.62 256.22 427.62 C 256.28 418.80 256.32 409.99 256.22 401.18 C 241.82 401.06 227.38 401.06 212.97 401.09 C 212.31 400.96 210.98 400.70 210.32 400.57 C 208.44 399.92 206.47 400.01 204.60 400.61 C 203.48 400.89 202.37 401.17 201.25 401.46 C 201.40 416.24 201.25 431.03 201.32 445.81 C 202.39 445.77 203.47 445.74 204.55 445.70 C 204.56 442.45 204.61 439.20 204.60 435.96 L 206.29 435.48 C 240.00 435.68 273.73 435.42 307.44 435.61 C 306.58 436.30 305.72 436.99 304.85 437.67 C 273.36 437.78 241.87 437.64 210.38 437.74 C 210.21 438.96 210.03 440.17 209.84 441.39 C 209.00 441.34 207.30 441.23 206.45 441.18 C 206.45 443.34 206.44 445.51 206.43 447.68 C 204.06 447.78 201.68 447.84 199.31 447.87 C 199.31 441.81 199.32 435.75 199.35 429.69 C 191.88 429.78 184.41 429.71 176.93 429.69 C 172.57 429.14 170.05 434.21 165.54 433.28 C 166.38 432.56 167.22 431.86 168.08 431.17 C 169.83 430.00 171.64 428.44 171.40 426.10 C 171.73 410.05 171.48 393.99 171.60 377.93 C 171.99 374.79 169.73 372.43 167.67 370.41 C 160.50 369.30 153.21 369.91 145.99 370.08 C 135.98 370.10 125.98 370.26 115.98 370.22 C 115.70 369.12 115.41 368.03 115.10 366.95 C 115.53 367.30 116.40 368.01 116.84 368.36 C 118.33 368.26 119.83 368.16 121.32 368.07 C 116.26 361.93 110.04 356.02 108.24 347.98 C 112.25 354.13 116.61 360.08 121.58 365.50 C 122.79 366.64 124.02 368.42 125.93 368.12 C 135.22 367.62 144.53 367.89 153.83 367.59 C 153.52 366.85 153.22 366.11 152.92 365.38 C 153.19 364.93 153.74 364.04 154.01 363.59 C 154.72 364.62 155.40 365.68 156.08 366.74 C 162.45 366.61 168.87 366.87 175.11 368.23 C 176.87 368.49 178.12 369.83 179.43 370.90 C 179.72 362.95 179.76 354.98 180.49 347.06 C 180.51 345.72 181.50 344.75 182.15 343.68 L 182.48 343.17 C 182.64 342.66 182.95 341.63 183.11 341.11 Z" fill="#49222d" opacity="1.00" stroke="#49222d" stroke-width="0.25"/>
<path d="M 331.34 341.58 C 352.61 341.59 373.92 341.28 395.16 342.09 C 391.85 342.83 388.25 343.25 385.58 345.55 C 378.47 351.63 372.94 359.30 368.23 367.33 C 361.56 366.01 354.81 367.23 348.14 367.71 C 344.78 368.04 341.21 370.08 340.49 373.60 C 340.07 376.60 340.04 379.65 339.65 382.66 C 338.55 382.61 337.45 382.57 336.36 382.53 C 334.36 375.96 335.14 368.97 334.60 362.20 C 333.99 355.32 336.18 347.37 331.34 341.58 Z" fill="#fffffd" opacity="1.00" stroke="#fffffd" stroke-width="0.25"/>
<path d="M 395.10 344.38 C 399.83 343.80 404.37 342.34 408.93 341.05 C 410.75 340.67 413.07 339.80 414.56 341.43 C 416.25 342.77 415.39 345.26 415.25 347.08 C 413.77 353.02 410.90 358.53 407.83 363.79 C 406.75 365.34 405.91 367.31 404.09 368.13 C 402.64 368.28 401.19 368.29 399.75 368.16 C 404.27 361.82 411.05 356.17 412.39 348.15 C 409.22 354.09 404.69 359.22 400.41 364.40 C 399.11 365.77 397.91 367.50 396.00 368.04 C 387.64 367.65 379.27 367.88 370.91 367.70 C 371.34 365.27 372.87 363.31 374.22 361.34 C 377.94 355.82 382.24 350.58 387.51 346.46 C 389.62 344.68 392.52 344.78 395.10 344.38 Z" fill="#ffffff" opacity="1.00" stroke="#ffffff" stroke-width="0.25"/>
<path d="M 125.84 342.36 C 127.52 342.07 129.22 341.79 130.94 341.76 C 148.26 341.53 165.59 341.57 182.92 341.51 C 182.72 342.05 182.34 343.14 182.15 343.68 C 181.50 344.75 180.51 345.72 180.49 347.06 C 179.76 354.98 179.72 362.95 179.43 370.90 C 178.12 369.83 176.87 368.49 175.11 368.23 C 168.87 366.87 162.45 366.61 156.08 366.74 C 155.40 365.68 154.72 364.62 154.01 363.59 C 149.12 356.76 143.64 350.25 136.92 345.16 C 133.67 342.96 129.60 342.83 125.84 342.36 Z" fill="#fefefd" opacity="1.00" stroke="#fefefd" stroke-width="0.25"/>
<path d="M 185.83 342.03 C 188.87 341.39 191.98 341.58 195.06 341.57 C 207.71 341.55 220.35 341.56 233.00 341.54 C 240.85 341.43 248.76 341.93 256.45 343.58 C 256.48 345.65 256.48 347.72 256.49 349.80 C 255.75 350.73 255.05 351.68 254.32 352.61 C 253.61 352.03 252.91 351.46 252.22 350.90 C 253.14 350.24 254.05 349.57 254.98 348.92 C 253.51 347.63 251.97 346.25 249.88 346.43 C 249.73 348.18 249.56 349.95 249.38 351.71 C 252.20 352.72 254.06 355.13 255.06 357.88 C 252.72 356.13 250.47 354.27 248.31 352.31 C 248.61 351.70 249.21 350.49 249.51 349.88 C 248.09 349.68 246.68 349.51 245.27 349.35 C 245.10 352.95 247.44 355.70 249.84 358.08 C 247.77 358.20 245.85 358.91 244.29 360.29 C 244.33 360.79 244.40 361.79 244.43 362.30 C 246.78 362.95 249.07 363.84 251.20 365.03 C 250.33 367.05 249.09 368.98 248.70 371.18 C 248.53 374.82 249.56 378.37 249.99 381.97 C 245.54 381.39 241.13 380.50 236.65 380.27 C 233.49 379.57 230.25 379.62 227.04 379.50 C 211.79 379.02 196.40 379.40 181.45 382.71 C 181.18 371.78 181.50 360.84 181.97 349.92 C 181.99 346.84 183.22 343.80 185.83 342.03 Z" fill="#fffffe" opacity="1.00" stroke="#fffffe" stroke-width="0.25"/>
<path d="M 258.42 344.30 C 264.93 341.82 272.07 341.82 278.95 341.54 C 294.98 341.56 311.01 341.54 327.04 341.60 C 329.87 341.51 331.23 344.38 332.53 346.42 C 332.58 358.48 333.42 370.55 333.47 382.59 C 333.70 383.05 334.15 383.96 334.38 384.41 C 335.20 384.41 336.83 384.40 337.65 384.40 C 337.48 385.40 337.32 386.40 337.17 387.40 C 315.20 385.85 293.11 386.45 271.08 386.38 C 269.32 386.05 266.53 387.27 265.90 384.80 C 273.49 382.80 281.35 382.05 289.16 381.55 C 303.49 381.14 317.98 380.79 332.10 383.74 C 332.52 383.08 332.95 382.42 333.37 381.76 C 311.27 378.31 288.49 378.30 266.50 382.51 C 267.66 378.48 268.93 374.28 268.22 370.05 C 267.70 368.23 266.59 366.71 265.35 365.33 C 267.45 364.62 269.38 363.52 271.05 362.05 C 270.03 360.91 268.79 360.05 267.42 359.40 C 268.87 357.68 270.05 355.75 270.56 353.53 C 266.65 352.17 264.43 355.65 261.94 357.92 C 262.88 354.49 266.90 353.76 268.21 350.63 C 267.07 350.46 265.93 350.30 264.79 350.16 C 263.74 351.39 262.66 352.59 261.56 353.78 C 262.47 351.15 263.10 348.43 263.36 345.66 C 261.42 344.69 259.73 345.78 258.27 347.03 C 258.31 346.34 258.38 344.98 258.42 344.30 Z" fill="#fefefe" opacity="1.00" stroke="#fefefe" stroke-width="0.25"/>
<path d="M 436.97 347.00 C 440.44 340.67 450.01 342.03 454.47 346.40 C 454.87 354.58 454.45 362.79 454.59 370.99 C 446.27 367.46 437.12 368.88 428.34 368.38 C 430.59 361.04 433.10 353.65 436.97 347.00 Z" fill="#fffeff" opacity="1.00" stroke="#fffeff" stroke-width="0.25"/>
<path d="M 66.35 360.80 C 71.41 355.57 75.76 349.65 78.78 343.00 C 83.94 344.86 85.71 350.55 87.70 355.11 C 89.09 359.56 91.66 363.76 91.82 368.52 C 83.28 368.91 74.31 367.35 66.24 370.91 C 66.34 367.54 66.19 364.16 66.35 360.80 Z" fill="#fffffd" opacity="1.00" stroke="#fffffd" stroke-width="0.25"/>
<path d="M 58.27 347.32 C 58.93 349.83 59.56 352.41 59.18 355.04 C 58.27 357.21 57.30 359.38 56.92 361.72 C 56.35 358.92 56.57 356.05 56.93 353.24 C 57.28 351.25 57.73 349.27 58.27 347.32 Z" fill="#fff5fb" opacity="1.00" stroke="#fff5fb" stroke-width="0.25"/>
<path d="M 257.44 357.94 C 256.86 354.28 258.07 350.32 260.90 347.87 C 260.44 351.16 259.25 354.30 258.25 357.44 C 258.04 357.57 257.64 357.82 257.44 357.94 Z" fill="#f4c7d0" opacity="1.00" stroke="#f4c7d0" stroke-width="0.25"/>
<path d="M 264.36 358.76 C 264.03 357.51 265.60 355.76 266.90 356.25 C 267.71 357.54 265.61 359.37 264.36 358.76 Z" fill="#9c6a74" opacity="1.00" stroke="#9c6a74" stroke-width="0.25"/>
<path d="M 247.33 360.18 C 250.48 359.70 254.22 361.50 254.74 364.85 C 252.37 363.14 249.17 362.51 247.33 360.18 Z" fill="#fff5fb" opacity="1.00" stroke="#fff5fb" stroke-width="0.25"/>
<path d="M 261.23 364.88 C 261.32 361.62 265.38 360.84 267.98 361.42 C 266.35 363.43 263.37 363.56 261.23 364.88 Z" fill="#f4c7d0" opacity="1.00" stroke="#f4c7d0" stroke-width="0.25"/>
<path d="M 59.52 373.44 C 60.46 369.68 61.72 365.93 64.18 362.86 C 64.48 372.76 64.32 382.67 64.35 392.58 C 61.74 392.72 59.12 392.76 56.50 392.77 C 57.19 386.28 57.96 379.78 59.52 373.44 Z" fill="#fffcfb" opacity="1.00" stroke="#fffcfb" stroke-width="0.25"/>
<path d="M 251.88 367.75 C 256.27 367.54 260.67 367.63 265.06 367.67 C 265.30 368.20 265.79 369.26 266.03 369.79 C 267.29 376.12 264.22 382.17 263.34 388.35 C 260.14 388.89 256.89 388.88 253.67 388.55 C 253.52 387.89 253.21 386.57 253.06 385.91 C 252.29 379.93 249.00 373.62 251.88 367.75 Z" fill="#feffff" opacity="1.00" stroke="#feffff" stroke-width="0.25"/>
<path d="M 169.16 369.22 C 172.39 369.60 176.22 369.80 178.33 372.68 C 180.54 376.00 179.05 380.13 178.48 383.72 C 176.87 383.86 175.25 383.99 173.64 384.13 C 173.56 381.44 173.69 378.74 173.51 376.06 C 173.22 373.21 171.15 371.06 169.16 369.22 Z" fill="#fffcfc" opacity="1.00" stroke="#fffcfc" stroke-width="0.25"/>
<path d="M 66.45 373.62 C 68.74 372.23 71.13 370.68 73.91 370.71 C 87.93 370.43 101.96 370.29 115.98 370.22 C 125.98 370.26 135.98 370.10 145.99 370.08 C 153.21 369.91 160.50 369.30 167.67 370.41 C 169.73 372.43 171.99 374.79 171.60 377.93 C 171.48 393.99 171.73 410.05 171.40 426.10 C 171.64 428.44 169.83 430.00 168.08 431.17 C 154.39 431.19 140.70 430.46 127.02 431.14 C 119.35 430.72 111.68 431.17 104.00 431.12 C 93.32 430.45 82.61 431.17 71.93 430.63 C 73.77 425.65 75.18 420.41 74.78 415.05 C 74.93 407.03 69.15 400.76 66.48 393.60 C 66.08 386.96 66.35 380.27 66.45 373.62 Z" fill="#ffffff" opacity="1.00" stroke="#ffffff" stroke-width="0.25"/>
<path d="M 342.08 376.94 C 341.72 373.29 344.37 370.21 347.88 369.55 C 348.68 369.49 350.26 369.36 351.06 369.29 C 349.98 370.73 348.87 372.15 347.87 373.65 C 346.96 378.89 346.82 384.27 347.24 389.58 C 345.43 388.74 344.15 387.26 343.07 385.66 C 343.96 385.68 345.74 385.74 346.62 385.76 C 346.44 385.23 346.06 384.16 345.87 383.63 C 341.21 385.64 342.30 379.57 342.08 376.94 Z" fill="#fffcfd" opacity="1.00" stroke="#fffcfd" stroke-width="0.25"/>
<path d="M 352.54 370.62 C 355.32 370.11 358.14 369.68 360.98 369.77 C 369.99 369.89 379.00 369.60 387.99 370.17 C 407.31 370.22 426.64 370.15 445.96 370.72 C 449.04 370.75 451.83 372.20 454.36 373.86 C 454.49 390.92 454.38 407.98 454.37 425.03 C 454.63 427.44 452.71 429.11 451.39 430.86 C 418.62 430.84 385.82 430.86 353.06 430.89 C 351.30 430.48 349.52 429.01 349.44 427.09 C 349.01 421.39 349.38 415.67 349.28 409.96 C 349.43 398.12 348.93 386.26 349.55 374.43 C 350.54 373.15 351.53 371.88 352.54 370.62 Z" fill="#ffffff" opacity="1.00" stroke="#ffffff" stroke-width="0.25"/>
<path d="M 183.18 384.50 C 196.86 381.16 211.07 381.18 225.06 381.36 C 232.74 381.42 240.36 382.51 247.93 383.67 C 249.44 383.93 250.93 384.38 251.02 386.23 C 229.03 386.78 206.96 385.56 185.01 387.29 C 184.55 386.59 183.64 385.20 183.18 384.50 Z" fill="#fffdfd" opacity="1.00" stroke="#fffdfd" stroke-width="0.25"/>
<path d="M 179.97 384.99 C 180.30 384.84 180.98 384.54 181.31 384.39 C 183.07 388.73 182.54 393.45 182.51 398.01 C 182.51 402.91 180.66 407.80 177.43 411.48 C 176.54 412.68 174.99 412.78 173.65 413.07 C 173.48 406.02 173.60 398.98 173.55 391.93 C 176.68 390.89 179.40 388.33 179.97 384.99 Z" fill="#fefefd" opacity="1.00" stroke="#fefefd" stroke-width="0.25"/>
<path d="M 173.91 385.89 C 175.18 385.67 176.48 385.64 177.76 385.58 C 176.96 387.48 175.45 388.89 173.61 389.78 C 173.71 388.49 173.25 387.05 173.91 385.89 Z" fill="#fff5fb" opacity="1.00" stroke="#fff5fb" stroke-width="0.25"/>
<path d="M 339.57 385.31 C 339.86 385.27 340.43 385.18 340.72 385.13 C 341.98 388.09 343.97 391.04 347.24 391.95 C 347.33 398.92 347.26 405.89 347.25 412.87 C 343.73 413.34 341.96 409.74 340.53 407.17 C 338.16 402.83 338.32 397.75 338.37 392.96 C 338.44 390.38 338.49 387.71 339.57 385.31 Z" fill="#fffdfd" opacity="1.00" stroke="#fffdfd" stroke-width="0.25"/>
<path d="M 201.75 391.27 C 202.31 389.91 203.32 388.31 205.00 388.40 C 220.58 388.24 236.17 388.49 251.75 388.32 C 252.06 389.11 252.68 390.69 253.00 391.49 C 235.92 391.05 218.83 391.60 201.75 391.27 Z" fill="#fffbfd" opacity="1.00" stroke="#fffbfd" stroke-width="0.25"/>
<path d="M 263.21 391.33 C 264.31 390.21 264.90 387.91 266.90 388.34 C 280.93 388.47 294.97 388.30 309.01 388.40 C 311.01 388.12 312.42 389.82 313.07 391.52 C 296.45 391.08 279.83 391.50 263.21 391.33 Z" fill="#fffbfd" opacity="1.00" stroke="#fffbfd" stroke-width="0.25"/>
<path d="M 314.03 388.31 C 321.53 388.64 329.02 388.91 336.50 389.51 C 335.80 398.37 337.46 407.14 337.49 415.99 C 337.40 420.74 341.41 423.89 343.89 427.47 C 334.46 427.59 325.02 427.68 315.59 427.41 C 315.52 418.77 315.62 410.12 315.51 401.48 C 316.53 401.19 317.55 400.90 318.58 400.61 C 318.62 397.83 318.83 395.04 318.52 392.27 C 317.12 390.84 315.50 389.65 314.03 388.31 Z" fill="#fefefe" opacity="1.00" stroke="#fefefe" stroke-width="0.25"/>
<path d="M 184.48 389.46 C 189.66 389.09 194.83 388.60 200.03 388.57 C 199.50 390.38 197.36 390.79 196.43 392.29 C 196.13 395.10 196.34 397.93 196.37 400.76 C 197.41 401.03 198.45 401.30 199.50 401.58 C 199.24 410.19 199.34 418.82 199.40 427.45 C 191.94 427.70 184.48 427.49 177.03 427.53 C 179.45 423.89 183.55 420.78 183.35 415.98 C 183.47 407.12 184.93 398.33 184.48 389.46 Z" fill="#fffefd" opacity="1.00" stroke="#fffefd" stroke-width="0.25"/>
<path d="M 33.88 400.77 C 35.46 398.02 36.49 394.89 38.75 392.59 C 41.03 392.76 43.36 392.49 45.62 392.96 C 49.20 394.25 53.04 393.80 56.77 393.78 C 59.31 394.09 62.43 393.06 64.59 394.76 C 56.36 394.86 48.12 394.63 39.89 394.88 C 38.46 395.87 37.85 397.60 37.03 399.06 C 34.61 404.16 31.18 409.12 31.13 414.99 C 30.41 424.73 35.11 433.60 38.31 442.50 C 39.22 444.40 39.52 447.33 42.05 447.74 C 47.62 449.30 53.54 449.03 59.23 448.29 C 58.91 448.84 58.27 449.94 57.95 450.49 C 52.59 451.11 47.15 450.93 41.83 449.98 C 38.87 449.48 37.55 446.68 36.60 444.18 C 30.64 446.40 24.80 448.92 18.96 451.46 C 18.61 451.62 17.91 451.94 17.56 452.10 C 22.34 452.79 27.19 452.17 32.00 452.39 C 40.71 452.21 49.42 452.73 58.13 452.36 C 202.77 452.24 347.42 452.39 492.05 452.28 C 492.72 452.17 494.04 451.96 494.70 451.85 C 495.33 452.66 495.76 453.58 496.31 454.46 C 387.87 454.56 279.42 454.46 170.97 454.51 C 117.12 454.41 63.26 454.69 9.41 454.38 C 8.97 452.52 10.84 452.12 12.04 451.62 C 20.00 448.75 27.60 444.93 35.64 442.28 C 33.86 434.79 29.56 427.86 29.05 420.00 C 28.00 413.17 30.65 406.63 33.88 400.77 Z" fill="#431624" opacity="1.00" stroke="#431624" stroke-width="0.25"/>
<path d="M 198.32 393.39 C 237.76 393.33 277.19 393.45 316.63 393.31 C 316.62 395.12 316.63 396.92 316.65 398.74 C 277.20 398.80 237.75 398.81 198.30 398.73 C 198.31 396.94 198.32 395.17 198.32 393.39 Z" fill="#fffcfd" opacity="1.00" stroke="#fffcfd" stroke-width="0.25"/>
<path d="M 37.03 399.06 C 37.85 397.60 38.46 395.87 39.89 394.88 C 48.12 394.63 56.36 394.86 64.59 394.76 C 67.56 401.39 72.64 407.46 72.80 415.04 C 73.35 425.59 67.72 434.97 64.51 444.69 C 64.10 447.33 61.43 447.87 59.23 448.29 C 53.54 449.03 47.62 449.30 42.05 447.74 C 39.52 447.33 39.22 444.40 38.31 442.50 C 35.11 433.60 30.41 424.73 31.13 414.99 C 31.18 409.12 34.61 404.16 37.03 399.06 Z" fill="#fefefe" opacity="1.00" stroke="#fefefe" stroke-width="0.25"/>
<path d="M 204.60 400.61 C 206.47 400.01 208.44 399.92 210.32 400.57 C 209.17 409.50 210.04 418.58 209.80 427.57 C 208.70 427.86 207.62 428.19 206.55 428.57 C 206.52 429.00 206.46 429.86 206.43 430.29 C 206.35 432.01 206.37 433.75 206.29 435.48 L 204.60 435.96 C 204.63 424.17 204.80 412.39 204.60 400.61 Z" fill="#521624" opacity="1.00" stroke="#521624" stroke-width="0.25"/>
<path d="M 304.57 400.52 C 306.46 399.82 308.46 399.85 310.38 400.45 C 310.17 415.77 309.93 431.13 310.61 446.44 C 310.33 446.54 309.77 446.73 309.49 446.83 C 309.32 445.02 309.04 443.22 308.49 441.49 C 307.20 441.43 305.91 441.37 304.62 441.31 C 304.68 440.40 304.79 438.58 304.85 437.67 C 305.72 436.99 306.58 436.30 307.44 435.61 C 307.72 435.50 308.27 435.29 308.55 435.18 C 308.50 433.33 308.46 431.48 308.37 429.63 C 307.28 428.72 306.03 428.03 304.72 427.55 C 304.65 418.54 304.95 409.52 304.57 400.52 Z" fill="#4d0f1f" opacity="1.00" stroke="#4d0f1f" stroke-width="0.25"/>
<path d="M 201.25 401.46 C 202.37 401.17 203.48 400.89 204.60 400.61 C 204.80 412.39 204.63 424.17 204.60 435.96 C 204.61 439.20 204.56 442.45 204.55 445.70 C 203.47 445.74 202.39 445.77 201.32 445.81 C 201.25 431.03 201.40 416.24 201.25 401.46 Z" fill="#fffcfb" opacity="1.00" stroke="#fffcfb" stroke-width="0.25"/>
<path d="M 210.32 400.57 C 210.98 400.70 212.31 400.96 212.97 401.09 C 227.38 401.06 241.82 401.06 256.22 401.18 C 256.32 409.99 256.28 418.80 256.22 427.62 C 240.75 427.57 225.27 427.57 209.80 427.57 C 210.04 418.58 209.17 409.50 210.32 400.57 Z" fill="#fffefe" opacity="1.00" stroke="#fffefe" stroke-width="0.25"/>
<path d="M 258.17 401.26 C 270.77 400.60 283.40 401.39 296.01 400.92 C 298.86 400.92 301.79 401.42 304.57 400.52 C 304.95 409.52 304.65 418.54 304.72 427.55 C 289.22 427.62 273.73 427.56 258.24 427.61 C 258.16 418.83 258.22 410.04 258.17 401.26 Z" fill="#fefefe" opacity="1.00" stroke="#fefefe" stroke-width="0.25"/>
<path d="M 310.38 400.45 C 311.16 400.60 312.71 400.89 313.49 401.04 C 313.70 415.83 313.45 430.62 313.59 445.41 C 312.85 445.67 311.36 446.18 310.61 446.44 C 309.93 431.13 310.17 415.77 310.38 400.45 Z" fill="#fffcfd" opacity="1.00" stroke="#fffcfd" stroke-width="0.25"/>
<path d="M 173.52 415.51 C 177.31 415.03 179.71 412.00 181.61 409.00 C 181.10 412.85 182.23 417.28 179.70 420.59 C 177.87 423.18 175.85 425.66 173.56 427.87 C 173.47 423.75 173.64 419.63 173.52 415.51 Z" fill="#fffbfb" opacity="1.00" stroke="#fffbfb" stroke-width="0.25"/>
<path d="M 339.34 408.97 C 341.03 412.08 343.45 415.20 347.25 415.59 C 347.28 419.32 347.12 423.06 347.40 426.79 C 344.61 426.55 343.62 423.12 341.73 421.38 C 338.40 418.09 339.64 413.15 339.34 408.97 Z" fill="#fffcfd" opacity="1.00" stroke="#fffcfd" stroke-width="0.25"/>
<path d="M 206.55 428.57 C 207.62 428.19 208.70 427.86 209.80 427.57 C 225.27 427.57 240.75 427.57 256.22 427.62 C 256.73 427.62 257.73 427.61 258.24 427.61 C 273.73 427.56 289.22 427.62 304.72 427.55 C 306.03 428.03 307.28 428.72 308.37 429.63 C 297.95 430.46 287.47 430.12 277.04 429.90 C 269.04 430.79 261.04 429.24 253.04 430.05 C 248.04 429.62 243.03 430.27 238.03 429.89 C 227.50 430.42 216.95 429.24 206.43 430.29 C 206.46 429.86 206.52 429.00 206.55 428.57 Z" fill="#490c1c" opacity="1.00" stroke="#490c1c" stroke-width="0.25"/>
<path d="M 165.54 433.28 C 170.05 434.21 172.57 429.14 176.93 429.69 C 184.41 429.71 191.88 429.78 199.35 429.69 C 199.32 435.75 199.31 441.81 199.31 447.87 C 201.68 447.84 204.06 447.78 206.43 447.68 C 206.44 445.51 206.45 443.34 206.45 441.18 C 207.30 441.23 209.00 441.34 209.84 441.39 C 210.03 440.17 210.21 438.96 210.38 437.74 C 241.87 437.64 273.36 437.78 304.85 437.67 C 304.79 438.58 304.68 440.40 304.62 441.31 C 305.91 441.37 307.20 441.43 308.49 441.49 C 308.35 443.57 308.33 445.66 308.35 447.74 C 310.75 447.80 313.16 447.79 315.56 447.72 C 315.57 441.70 315.56 435.69 315.59 429.67 C 325.76 429.90 335.94 429.54 346.10 429.81 C 349.31 431.18 351.90 434.18 355.79 433.36 C 355.88 438.18 355.58 443.02 355.97 447.84 C 358.28 447.82 360.59 447.80 362.90 447.76 C 363.38 442.93 363.15 438.07 363.24 433.23 C 381.68 433.14 400.13 433.35 418.58 433.10 C 418.68 435.55 418.72 438.00 418.70 440.45 C 420.61 440.67 422.53 440.83 424.46 440.98 C 425.20 438.33 423.86 435.02 425.62 432.76 C 426.03 437.51 425.60 442.29 425.93 447.04 C 427.62 448.65 430.79 447.46 433.05 447.79 C 433.37 442.95 433.18 438.10 433.31 433.26 C 439.10 433.31 444.91 433.10 450.71 433.31 C 465.38 439.47 480.08 445.58 494.70 451.85 C 494.04 451.96 492.72 452.17 492.05 452.28 C 347.42 452.39 202.77 452.24 58.13 452.36 C 57.55 452.23 56.40 451.97 55.82 451.84 C 56.31 451.56 57.29 451.02 57.78 450.74 C 59.82 450.16 61.89 449.71 63.98 449.35 C 67.60 444.72 68.56 438.62 71.10 433.38 C 76.09 433.16 81.08 433.25 86.07 433.27 C 86.29 438.11 86.12 442.95 86.17 447.79 C 88.56 447.86 90.97 447.89 93.31 447.36 C 93.19 442.53 93.20 437.71 93.31 432.88 C 96.60 433.67 94.71 438.22 95.34 440.72 C 97.34 440.86 99.36 440.84 101.34 440.46 C 101.35 438.00 101.40 435.55 101.47 433.09 C 120.08 433.50 138.72 432.80 157.32 433.46 C 157.13 438.23 157.17 443.01 157.24 447.78 C 159.55 447.78 161.85 447.76 164.16 447.76 C 164.55 442.98 164.32 438.18 164.37 433.38 C 164.66 433.36 165.25 433.30 165.54 433.28 Z" fill="#fffffe" opacity="1.00" stroke="#fffffe" stroke-width="0.25"/>
<path d="M 206.43 430.29 C 216.95 429.24 227.50 430.42 238.03 429.89 C 243.03 430.27 248.04 429.62 253.04 430.05 C 261.04 429.24 269.04 430.79 277.04 429.90 C 287.47 430.12 297.95 430.46 308.37 429.63 C 308.46 431.48 308.50 433.33 308.55 435.18 C 308.27 435.29 307.72 435.50 307.44 435.61 C 273.73 435.42 240.00 435.68 206.29 435.48 C 206.37 433.75 206.35 432.01 206.43 430.29 Z" fill="#fffdfd" opacity="1.00" stroke="#fffdfd" stroke-width="0.25"/>
<path d="M 88.20 433.98 C 88.08 431.84 90.40 432.94 91.37 433.59 C 91.16 437.64 91.25 441.69 91.24 445.75 C 90.43 445.70 88.81 445.61 88.00 445.56 C 88.45 441.71 87.78 437.82 88.20 433.98 Z" fill="#fffbfb" opacity="1.00" stroke="#fffbfb" stroke-width="0.25"/>
<path d="M 97.18 433.12 C 97.74 433.14 98.85 433.20 99.41 433.23 C 99.37 435.07 99.37 436.91 99.38 438.76 C 98.84 438.78 97.75 438.82 97.20 438.85 C 97.18 436.93 97.17 435.02 97.18 433.12 Z" fill="#fff5fb" opacity="1.00" stroke="#fff5fb" stroke-width="0.25"/>
<path d="M 159.25 433.98 C 159.11 432.00 161.42 432.83 162.46 433.34 C 162.28 437.41 162.37 441.49 162.37 445.57 C 161.30 445.64 160.23 445.70 159.17 445.78 C 159.23 441.84 159.04 437.91 159.25 433.98 Z" fill="#fffafd" opacity="1.00" stroke="#fffafd" stroke-width="0.25"/>
<path d="M 357.66 433.62 C 358.71 432.58 360.29 432.54 361.28 433.70 C 361.09 437.64 361.13 441.59 361.19 445.54 C 360.32 445.57 358.58 445.63 357.71 445.65 C 357.75 441.64 357.87 437.63 357.66 433.62 Z" fill="#fffbfb" opacity="1.00" stroke="#fffbfb" stroke-width="0.25"/>
<path d="M 420.86 433.00 C 424.07 431.33 423.22 437.04 422.74 438.80 C 419.55 440.69 420.84 434.80 420.86 433.00 Z" fill="#f5d6df" opacity="1.00" stroke="#f5d6df" stroke-width="0.25"/>
<path d="M 427.84 445.68 C 428.41 441.41 426.73 436.50 428.69 432.64 C 429.33 432.66 430.62 432.68 431.27 432.70 C 431.27 437.02 431.14 441.34 431.26 445.67 C 430.40 445.67 428.70 445.68 427.84 445.68 Z" fill="#fffbfb" opacity="1.00" stroke="#fffbfb" stroke-width="0.25"/>
<path d="M 206.60 437.57 C 207.06 437.56 207.97 437.54 208.42 437.53 C 210.31 440.25 204.82 440.28 206.60 437.57 Z" fill="#f4c7d0" opacity="1.00" stroke="#f4c7d0" stroke-width="0.25"/>
<path d="M 307.17 438.24 C 310.45 438.46 305.61 441.26 307.17 438.24 Z" fill="#b77f8d" opacity="1.00" stroke="#b77f8d" stroke-width="0.25"/>
<path d="M 18.96 451.46 C 24.80 448.92 30.64 446.40 36.60 444.18 C 37.55 446.68 38.87 449.48 41.83 449.98 C 43.86 450.62 45.94 451.09 48.00 451.60 C 38.34 452.10 28.63 451.98 18.96 451.46 Z" fill="#fffdfd" opacity="1.00" stroke="#fffdfd" stroke-width="0.25"/>
<path d="M 41.83 449.98 C 47.15 450.93 52.59 451.11 57.95 450.49 L 57.78 450.74 C 57.29 451.02 56.31 451.56 55.82 451.84 C 56.40 451.97 57.55 452.23 58.13 452.36 C 49.42 452.73 40.71 452.21 32.00 452.39 C 27.19 452.17 22.34 452.79 17.56 452.10 C 17.91 451.94 18.61 451.62 18.96 451.46 C 28.63 451.98 38.34 452.10 48.00 451.60 C 45.94 451.09 43.86 450.62 41.83 449.98 Z" fill="#f4c7d0" opacity="1.00" stroke="#f4c7d0" stroke-width="0.25"/>
</svg>